<svg width="211" height="50" viewBox="0 0 211 50" fill="none" xmlns="http://www.w3.org/2000/svg">
<g clip-path="url(#clip0_2_34)">
<path d="M19.4928 4.36758C12.418 4.36758 6.68298 12.1701 6.68298 25.0417C6.68298 37.9132 12.418 46.592 19.4928 46.592C26.5677 46.592 32.3027 37.9106 32.3027 25.0417C32.3027 12.1728 26.5677 4.36758 19.4928 4.36758ZM19.4928 45.4792C15.1532 45.4792 11.6105 42.0309 11.3722 37.6875C11.3642 37.5343 11.3589 13.8902 11.3589 13.737C11.3589 9.17864 14.9996 5.483 19.4902 5.483C23.9808 5.483 27.6215 9.17864 27.6215 13.737C27.6215 13.9117 27.6162 37.5746 27.6056 37.7466C27.3408 42.0631 23.8087 45.4819 19.4902 45.4819L19.4928 45.4792Z" fill="#00244C"/>
<path d="M31.429 6.79462C29.7053 6.14688 28.821 4.19827 29.4591 2.44855C30.0972 0.698829 32.0168 -0.198875 33.7405 0.44887C35.4642 1.09661 36.3485 3.04523 35.7104 4.79494C35.0723 6.54466 33.1527 7.44237 31.429 6.79462ZM33.3036 1.6476C32.2313 1.24444 31.0371 1.80349 30.6426 2.89202C30.2455 3.98056 30.7962 5.19273 31.8685 5.59589C32.9409 5.99905 34.135 5.44 34.5322 4.35147C34.9293 3.26293 34.3786 2.05076 33.3063 1.65029L33.3036 1.6476Z" fill="#00244C"/>
<path d="M32.5754 7.24346C32.1624 7.24346 31.7467 7.1682 31.3495 7.01769C30.4572 6.68172 29.745 6.01516 29.3478 5.13627C28.948 4.25738 28.9109 3.27367 29.2419 2.3679C29.5729 1.46213 30.2295 0.739131 31.0953 0.335971C31.9611 -0.069878 32.9302 -0.107506 33.8225 0.228461C35.668 0.91921 36.6133 3.00758 35.9328 4.87825C35.6018 5.78402 34.9452 6.50702 34.0794 6.91018C33.6001 7.13326 33.0891 7.24615 32.5781 7.24346H32.5754ZM32.594 0.473045C32.1491 0.473045 31.707 0.569804 31.2886 0.763321C30.5367 1.11541 29.9621 1.74166 29.6761 2.52917C29.3902 3.31667 29.4219 4.17137 29.7688 4.93469C30.1157 5.69801 30.7326 6.28125 31.5084 6.57152C33.1103 7.17089 34.8975 6.33769 35.4906 4.71161C35.7766 3.9241 35.7448 3.0694 35.3979 2.30608C35.0511 1.54277 34.4342 0.959526 33.6584 0.66925C33.3115 0.540239 32.9514 0.473045 32.5913 0.473045H32.594ZM32.5781 5.96141C32.3159 5.96141 32.0485 5.91303 31.7864 5.81627C31.2092 5.60125 30.7511 5.16852 30.4916 4.59872C30.2348 4.03161 30.2083 3.39462 30.4228 2.80869C30.8623 1.59652 32.1915 0.97834 33.3856 1.4245C33.9629 1.63952 34.4236 2.07225 34.6804 2.64205C34.9372 3.20916 34.9637 3.84616 34.7492 4.43208C34.405 5.37817 33.518 5.9641 32.5781 5.96141ZM32.5913 1.7551C31.842 1.7551 31.135 2.22008 30.8597 2.97533C30.6902 3.443 30.7088 3.94829 30.9153 4.40252C31.1218 4.85675 31.4872 5.20078 31.9479 5.37279C32.8985 5.72757 33.9602 5.23303 34.3097 4.26813C34.4792 3.80047 34.4606 3.29517 34.2541 2.84094C34.0476 2.38671 33.6822 2.04268 33.2215 1.87067C33.0123 1.79272 32.8005 1.7551 32.5913 1.7551Z" fill="#00244C"/>
<path d="M31.4686 5.4803C30.9947 5.19271 30.4307 5.38085 30.1368 5.82433C28.0398 8.96899 26.1705 12.2749 24.2879 15.5539C21.8334 19.8328 19.4187 24.1359 16.9642 28.4175C14.6686 32.4249 12.3544 36.4296 9.88143 40.3268C9.11093 41.539 8.32455 42.7404 7.49315 43.9123C7.13041 43.321 6.77031 42.727 6.29901 42.2163C5.70327 41.5713 4.88776 41.0821 3.99281 41.1331C3.05815 41.1869 2.16321 41.6895 1.52245 42.3668C0.333609 43.622 -0.251546 45.5142 0.10855 47.2263C0.481884 49.0055 2.02553 50.3655 3.86837 49.914C5.24256 49.578 6.36785 48.4357 7.27074 47.3902C7.33429 47.3176 7.39519 47.2397 7.45608 47.1644C7.77117 47.4762 8.25041 47.9063 8.88852 48.339C9.72786 48.9061 10.2442 48.9921 10.9458 49.0324C12.1082 49.0996 13.1726 48.554 13.1779 48.1562C13.1779 48.132 12.5927 48.3981 11.0385 47.745C9.381 47.0462 8.82762 45.7829 8.6767 45.6136C9.16654 44.9444 9.63784 44.259 10.0985 43.5736C12.6033 39.843 14.8725 35.9485 17.1257 32.0567C19.7205 27.5762 22.2571 23.0608 24.8201 18.5642C26.8933 14.9304 28.9532 11.2751 31.2118 7.75413C31.4104 7.44504 31.6116 7.13864 31.8128 6.83223C32.1067 6.39144 31.9055 5.74101 31.4739 5.4803H31.4686ZM5.87802 46.0141C5.53911 46.4038 5.18166 46.7774 4.80038 47.1241C4.5965 47.3069 4.45088 47.4332 4.27083 47.5568C4.17816 47.6214 4.07754 47.6859 3.9531 47.7557C3.90544 47.7826 3.85513 47.8095 3.80747 47.8364C3.79688 47.8417 3.78364 47.8498 3.77305 47.8552C3.77305 47.8552 3.76246 47.8606 3.74657 47.8659C3.72539 47.874 3.69362 47.8874 3.66184 47.9009C3.63007 47.9143 3.5983 47.9278 3.59035 47.9331C3.51886 47.9573 3.44737 47.9815 3.37324 48.0003C3.36794 48.0003 3.36529 48.003 3.36 48.003C3.36 48.003 3.31499 48.0084 3.27792 48.0138C3.23555 48.0191 3.19319 48.0245 3.18525 48.0272C3.13494 48.0272 3.08463 48.0272 3.03432 48.0272C3.03168 48.0272 3.02109 48.0245 3.01049 48.0218C3.00255 48.0218 2.99461 48.0191 2.98137 48.0164C2.93106 48.0057 2.86222 47.9949 2.85428 47.9923C2.85163 47.9923 2.83839 47.9869 2.83045 47.9842C2.8225 47.9842 2.81986 47.9815 2.81191 47.9788C2.79603 47.9734 2.78279 47.9681 2.7722 47.9654C2.73778 47.9466 2.706 47.9251 2.67158 47.9063C2.6451 47.8901 2.61863 47.8767 2.59215 47.8606C2.58156 47.8552 2.57891 47.8525 2.57097 47.8498C2.56567 47.8498 2.56038 47.8444 2.55508 47.8417C2.54714 47.831 2.53919 47.8202 2.52331 47.8014C2.48624 47.7611 2.44387 47.7154 2.40416 47.6778C2.39621 47.6697 2.39092 47.667 2.38562 47.6617C2.38033 47.6563 2.36974 47.6482 2.36444 47.6429C2.36444 47.6402 2.35915 47.6321 2.3565 47.6294C2.3512 47.6214 2.34855 47.6133 2.33796 47.5999C2.30619 47.5461 2.27442 47.4923 2.24264 47.4413C2.22676 47.4171 2.21087 47.3929 2.19763 47.366C2.19763 47.366 2.19234 47.3553 2.18704 47.3445C2.18175 47.3311 2.1738 47.315 2.16321 47.2961C2.15262 47.2719 2.14203 47.2504 2.13144 47.2343C2.12614 47.2263 2.12085 47.2155 2.1182 47.2101C2.09172 47.1402 2.06789 47.0677 2.04671 46.9978C2.02553 46.9252 2.01229 46.8527 1.9964 46.7801C1.98316 46.7183 1.96463 46.6591 1.95404 46.5973C1.95404 46.5812 1.93815 46.4361 1.9355 46.4146V46.4092C1.93286 46.3447 1.93021 46.2802 1.93021 46.2157C1.93021 46.1189 1.9355 46.0221 1.94345 45.9281C1.94874 45.8743 1.95404 45.8206 1.96198 45.7668C1.96198 45.7668 1.96198 45.7641 1.96198 45.7614C1.96198 45.7561 1.96463 45.7426 1.96992 45.7157C1.98581 45.6351 2.0017 45.5545 2.02023 45.4738C2.04406 45.3663 2.07054 45.2615 2.10231 45.1567C2.12614 45.0734 2.15262 44.9927 2.18175 44.9121C2.18704 44.8987 2.20293 44.8584 2.21352 44.8234C2.22146 44.8046 2.22676 44.7858 2.23205 44.775C2.26118 44.7105 2.2903 44.6487 2.32208 44.5842C2.36709 44.4955 2.41475 44.4095 2.46506 44.3235C2.49948 44.2644 2.53655 44.2079 2.57626 44.1488C2.5842 44.138 2.59215 44.1246 2.60009 44.1139C2.62657 44.0735 2.65569 44.0332 2.68482 43.9956C2.69012 43.9875 2.7113 43.966 2.74572 43.923C2.98137 43.6677 3.10581 43.536 3.34146 43.3882C3.36265 43.3747 3.37853 43.3613 3.39972 43.3478C3.55064 43.2565 3.67773 43.192 3.80217 43.1516C3.92662 43.1113 4.05106 43.0979 4.19404 43.1086C4.21258 43.1113 4.23111 43.1167 4.24435 43.1221C4.247 43.1221 4.25229 43.1221 4.25494 43.1248C4.27083 43.1328 4.41381 43.2 4.41646 43.1946C4.47735 43.2296 4.5356 43.2645 4.59386 43.3022C4.63357 43.3263 4.65475 43.3425 4.66799 43.3532C4.68123 43.364 4.68388 43.3667 4.67858 43.364C4.67064 43.3613 4.64416 43.3425 4.62828 43.329C4.62828 43.329 4.62563 43.3263 4.62298 43.3263C4.70241 43.3962 4.7739 43.4634 4.8401 43.5306C4.90629 43.5978 4.96719 43.665 5.02279 43.7349C5.13665 43.8693 5.23197 44.0037 5.32199 44.1407C5.49939 44.4068 5.66885 44.6783 5.83565 44.9524C5.9654 45.1648 6.09249 45.3744 6.22488 45.584C6.10573 45.7292 5.98922 45.8743 5.86743 46.0168L5.87802 46.0141Z" fill="#00244C"/>
<path d="M46.7039 35.1771C46.1637 34.7901 45.7825 34.0805 45.7825 33.3064C45.7825 32.0163 46.7992 31.0165 48.0701 31.0165C48.7056 31.0165 49.1504 31.2422 49.4682 31.468C51.1521 32.7259 52.995 33.4999 55.1555 33.4999C57.1572 33.4999 58.3646 32.6936 58.3646 31.3713V31.3068C58.3646 30.0489 57.6021 29.4038 53.8846 28.4362C49.4046 27.2751 46.5133 26.0173 46.5133 21.5341V21.4696C46.5133 17.3735 49.7541 14.6643 54.2977 14.6643C56.9984 14.6643 59.3496 15.3738 61.3513 16.664C61.8914 16.9865 62.4316 17.6638 62.4316 18.6314C62.4316 19.9215 61.4148 20.9213 60.1439 20.9213C59.6673 20.9213 59.286 20.7923 58.9048 20.5665C57.2843 19.599 55.7592 19.0507 54.2341 19.0507C52.3595 19.0507 51.3745 19.9215 51.3745 21.0181V21.0826C51.3745 22.5662 52.3277 23.05 56.1723 24.0499C60.6841 25.2432 63.2259 26.8881 63.2259 30.823V30.8875C63.2259 35.3706 59.858 37.8863 55.0602 37.8863C52.1371 37.8863 49.1822 36.9833 46.7039 35.1771Z" fill="#00244C"/>
<path d="M67.6106 32.6614V24.4692H67.4517C66.3079 24.4692 65.3865 23.5338 65.3865 22.3727C65.3865 21.2116 66.3079 20.2763 67.4517 20.2763H67.6106V18.1153C67.6106 16.7607 68.6909 15.6641 70.0254 15.6641C71.3598 15.6641 72.4401 16.7607 72.4401 18.1153V20.2763H74.5689C75.7127 20.2763 76.6342 21.2116 76.6342 22.3727C76.6342 23.5338 75.7127 24.4692 74.5689 24.4692H72.4401V31.8551C72.4401 32.9839 72.9167 33.5322 73.997 33.5322C74.1559 33.5322 74.4736 33.5 74.5689 33.5C75.6492 33.5 76.5706 34.403 76.5706 35.5319C76.5706 36.4027 75.9987 37.1123 75.3315 37.3703C74.4418 37.7251 73.6157 37.8541 72.5672 37.8541C69.6123 37.8541 67.6106 36.6607 67.6106 32.6614Z" fill="#00244C"/>
<path d="M95.4756 35.3061C95.4756 36.6607 94.3953 37.7573 93.0608 37.7573C91.7264 37.7573 90.6461 36.6607 90.6461 35.3061V35.1126C89.534 36.564 88.1042 37.8863 85.6577 37.8863C82.0038 37.8863 79.875 35.4351 79.875 31.468V22.534C79.875 21.1794 80.9553 20.0828 82.2898 20.0828C83.6242 20.0828 84.7045 21.1794 84.7045 22.534V29.9199C84.7045 32.2421 85.7848 33.4354 87.6276 33.4354C89.4705 33.4354 90.6461 32.2421 90.6461 29.9199V22.534C90.6461 21.1794 91.7264 20.0828 93.0608 20.0828C94.3953 20.0828 95.4756 21.1794 95.4756 22.534V35.3061Z" fill="#00244C"/>
<path d="M116.922 35.3061C116.922 36.6607 115.842 37.7573 114.508 37.7573C113.173 37.7573 112.093 36.6607 112.093 35.3061V35.0804C110.917 36.693 109.297 37.8864 106.787 37.8864C102.815 37.8864 99.0342 34.7256 99.0342 28.9523V28.8878C99.0342 23.1145 102.752 19.9538 106.787 19.9538C109.36 19.9538 110.949 21.1471 112.093 22.534V16.2769C112.093 14.9223 113.173 13.8257 114.508 13.8257C115.842 13.8257 116.922 14.9223 116.922 16.2769V35.3061ZM103.864 28.8878V28.9523C103.864 31.8228 105.77 33.7257 108.026 33.7257C110.282 33.7257 112.156 31.8228 112.156 28.9523V28.8878C112.156 26.0173 110.282 24.1144 108.026 24.1144C105.77 24.1144 103.864 25.985 103.864 28.8878Z" fill="#00244C"/>
<path d="M121.18 16.1479C121.18 14.7288 122.356 13.858 123.881 13.858C125.406 13.858 126.581 14.7288 126.581 16.1479V16.2124C126.581 17.6316 125.406 18.5346 123.881 18.5346C122.356 18.5346 121.18 17.6316 121.18 16.2124V16.1479ZM121.466 22.534C121.466 21.1794 122.546 20.0828 123.881 20.0828C125.215 20.0828 126.296 21.1794 126.296 22.534V35.3061C126.296 36.6607 125.215 37.7573 123.881 37.7573C122.546 37.7573 121.466 36.6607 121.466 35.3061V22.534Z" fill="#00244C"/>
<path d="M130.013 29.0168V28.9523C130.013 23.9854 133.953 19.9538 139.259 19.9538C144.565 19.9538 148.441 23.9209 148.441 28.8878V28.9523C148.441 33.9193 144.502 37.9509 139.195 37.9509C133.889 37.9509 130.013 33.9838 130.013 29.0168ZM143.676 29.0168V28.9523C143.676 26.4043 141.864 24.1789 139.195 24.1789C136.527 24.1789 134.779 26.3398 134.779 28.8878V28.9523C134.779 31.5003 136.59 33.7257 139.259 33.7257C141.928 33.7257 143.676 31.5648 143.676 29.0168Z" fill="#00244C"/>
<path d="M151.934 22.534C151.934 21.1794 153.014 20.0828 154.349 20.0828C155.683 20.0828 156.763 21.1794 156.763 22.534V23.3081C157.462 21.6309 158.606 20.0828 160.036 20.0828C161.466 20.0828 162.387 21.0826 162.387 22.4695C162.387 23.7596 161.561 24.5337 160.576 24.7594C158.13 25.34 156.763 27.2429 156.763 30.7262V35.3061C156.763 36.6607 155.683 37.7573 154.349 37.7573C153.014 37.7573 151.934 36.6607 151.934 35.3061V22.534Z" fill="#00244C"/>
<path d="M180.688 35.3061C180.688 36.6607 179.608 37.7573 178.274 37.7573C176.939 37.7573 175.859 36.6607 175.859 35.3061V35.1126C174.747 36.564 173.317 37.8863 170.871 37.8863C167.217 37.8863 165.088 35.4351 165.088 31.468V22.534C165.088 21.1794 166.168 20.0828 167.503 20.0828C168.837 20.0828 169.917 21.1794 169.917 22.534V29.9199C169.917 32.2421 170.998 33.4354 172.841 33.4354C174.683 33.4354 175.859 32.2421 175.859 29.9199V22.534C175.859 21.1794 176.939 20.0828 178.274 20.0828C179.608 20.0828 180.688 21.1794 180.688 22.534V35.3061Z" fill="#00244C"/>
<path d="M185.01 22.534C185.01 21.1794 186.09 20.0828 187.424 20.0828C188.759 20.0828 189.839 21.1794 189.839 22.534V22.7275C190.951 21.2761 192.413 19.9538 194.859 19.9538C197.083 19.9538 198.767 20.9536 199.657 22.6953C201.15 20.9214 202.93 19.9538 205.249 19.9538C208.839 19.9538 211 22.147 211 26.3076V35.3061C211 36.6607 209.92 37.7573 208.585 37.7573C207.251 37.7573 206.171 36.6607 206.171 35.3061V27.9202C206.171 25.598 205.154 24.4047 203.343 24.4047C201.532 24.4047 200.42 25.598 200.42 27.9202V35.3061C200.42 36.6607 199.339 37.7573 198.005 37.7573C196.67 37.7573 195.59 36.6607 195.59 35.3061V27.9202C195.59 25.598 194.573 24.4047 192.762 24.4047C190.951 24.4047 189.839 25.598 189.839 27.9202V35.3061C189.839 36.6607 188.759 37.7573 187.424 37.7573C186.09 37.7573 185.01 36.6607 185.01 35.3061V22.534Z" fill="#00244C"/>
</g>
<defs>
<clipPath id="clip0_2_34">
<rect width="211" height="50" fill="white"/>
</clipPath>
</defs>
</svg>
