<svg width="189" height="42" viewBox="0 0 189 42" fill="none" xmlns="http://www.w3.org/2000/svg">
<path d="M17.4576 3.59863C11.1205 3.59863 5.9834 10.0297 5.9834 20.6388C5.9834 31.248 11.1205 38.4012 17.4576 38.4012C23.7948 38.4012 28.9319 31.2458 28.9319 20.6388C28.9319 10.0319 23.7948 3.59863 17.4576 3.59863ZM17.4576 37.4841C13.5704 37.4841 10.3971 34.6418 10.1837 31.0619C10.1765 30.9356 10.1718 11.4475 10.1718 11.3212C10.1718 7.56405 13.4329 4.51799 17.4553 4.51799C21.4777 4.51799 24.7387 7.56405 24.7387 11.3212C24.7387 11.4652 24.734 30.9689 24.7245 31.1106C24.4873 34.6684 21.3235 37.4863 17.4553 37.4863L17.4576 37.4841Z" fill="white"/>
<path d="M28.1491 5.59917C26.6052 5.06528 25.813 3.45918 26.3846 2.01701C26.9562 0.574835 28.6757 -0.16508 30.2196 0.368811C31.7636 0.902702 32.5557 2.50881 31.9842 3.95098C31.4126 5.39315 29.6931 6.13306 28.1491 5.59917ZM29.8283 1.35684C28.8678 1.02454 27.7981 1.48533 27.4447 2.38253C27.089 3.27974 27.5823 4.27884 28.5428 4.61114C29.5034 4.94344 30.573 4.48265 30.9288 3.58545C31.2845 2.68825 30.7912 1.68914 29.8307 1.35906L29.8283 1.35684Z" fill="white"/>
<path d="M29.1761 5.96915C28.8061 5.96915 28.4338 5.90712 28.078 5.78306C27.2787 5.50614 26.6408 4.95675 26.285 4.23234C25.9269 3.50793 25.8937 2.69712 26.1901 1.95056C26.4866 1.204 27.0748 0.608082 27.8503 0.275785C28.6259 -0.0587275 29.4939 -0.0897418 30.2932 0.187173C31.9462 0.756509 32.7929 2.47781 32.1834 4.01967C31.8869 4.76623 31.2988 5.36215 30.5232 5.69445C30.0939 5.87832 29.6362 5.97136 29.1785 5.96915H29.1761ZM29.1927 0.388766C28.7942 0.388766 28.3982 0.468518 28.0234 0.62802C27.3499 0.918227 26.8352 1.43439 26.5791 2.08348C26.3229 2.73257 26.3514 3.43704 26.6621 4.06619C26.9728 4.69534 27.5254 5.17606 28.2203 5.41532C29.6552 5.90933 31.2561 5.22258 31.7873 3.88232C32.0435 3.23323 32.015 2.52876 31.7043 1.89961C31.3936 1.27046 30.841 0.789738 30.1461 0.550484C29.8354 0.444149 29.5129 0.388766 29.1903 0.388766H29.1927ZM29.1785 4.91244C28.9437 4.91244 28.7041 4.87256 28.4693 4.79281C27.9523 4.61559 27.542 4.25892 27.3096 3.78928C27.0795 3.32184 27.0558 2.79681 27.2479 2.31388C27.6416 1.31477 28.8322 0.805246 29.9018 1.17299C30.4189 1.35021 30.8315 1.70688 31.0616 2.17653C31.2916 2.64396 31.3154 3.16899 31.1232 3.65193C30.8149 4.43172 30.0204 4.91466 29.1785 4.91244ZM29.1903 1.44547C28.5191 1.44547 27.8859 1.82872 27.6392 2.45122C27.4874 2.83669 27.504 3.25317 27.689 3.62756C27.874 4.00195 28.2013 4.28551 28.614 4.42729C29.4654 4.71971 30.4165 4.31209 30.7295 3.51679C30.8813 3.13133 30.8647 2.71485 30.6797 2.34046C30.4947 1.96607 30.1675 1.68251 29.7548 1.54073C29.5674 1.47649 29.3777 1.44547 29.1903 1.44547Z" fill="white"/>
<path d="M28.1847 4.51642C27.7602 4.27938 27.255 4.43446 26.9917 4.79998C25.1133 7.3919 23.4389 10.1167 21.7527 12.8194C19.5541 16.3462 17.3911 19.8929 15.1926 23.4219C13.1363 26.725 11.0635 30.0258 8.8483 33.238C8.15813 34.2371 7.45374 35.2273 6.70903 36.1932C6.38411 35.7058 6.06156 35.2163 5.6394 34.7953C5.10577 34.2637 4.37529 33.8605 3.57366 33.9026C2.73645 33.9469 1.93482 34.3611 1.36087 34.9194C0.295982 35.954 -0.228161 37.5135 0.0943887 38.9247C0.428797 40.3912 1.81149 41.5122 3.46219 41.14C4.6931 40.8631 5.70106 39.9216 6.50981 39.0598C6.56673 39 6.62128 38.9358 6.67583 38.8737C6.95806 39.1307 7.38734 39.4852 7.95891 39.8418C8.71074 40.3093 9.17322 40.3802 9.80172 40.4134C10.8429 40.4688 11.7963 40.0191 11.8011 39.6912C11.8011 39.6713 11.2769 39.8906 9.88472 39.3522C8.40005 38.7763 7.90436 37.7351 7.76918 37.5955C8.20794 37.0439 8.6301 36.479 9.04278 35.9141C11.2864 32.8392 13.3189 29.6292 15.3372 26.4215C17.6615 22.7285 19.9336 19.0068 22.2294 15.3006C24.0864 12.3055 25.9316 9.29264 27.9546 6.39058C28.1325 6.13582 28.3128 5.88327 28.493 5.63073C28.7563 5.26741 28.576 4.73131 28.1894 4.51642H28.1847ZM5.2623 37.9256C4.95873 38.2468 4.63855 38.5547 4.29702 38.8405C4.1144 38.9912 3.98396 39.0953 3.82269 39.1972C3.73968 39.2503 3.64955 39.3035 3.53808 39.3611C3.49539 39.3833 3.45033 39.4054 3.40764 39.4276C3.39815 39.432 3.38629 39.4386 3.37681 39.4431C3.37681 39.4431 3.36732 39.4475 3.35309 39.4519C3.33412 39.4586 3.30566 39.4697 3.2772 39.4807C3.24874 39.4918 3.22028 39.5029 3.21316 39.5073C3.14913 39.5273 3.08509 39.5472 3.01868 39.5627C3.01394 39.5627 3.01157 39.5649 3.00682 39.5649C3.00682 39.5649 2.96651 39.5694 2.9333 39.5738C2.89535 39.5782 2.85741 39.5826 2.85029 39.5849C2.80523 39.5849 2.76017 39.5849 2.71511 39.5849C2.71273 39.5849 2.70325 39.5826 2.69376 39.5804C2.68665 39.5804 2.67953 39.5782 2.66767 39.576C2.62261 39.5671 2.56095 39.5583 2.55383 39.5561C2.55146 39.5561 2.5396 39.5516 2.53249 39.5494C2.52537 39.5494 2.523 39.5472 2.51588 39.545C2.50165 39.5406 2.4898 39.5361 2.48031 39.5339C2.44948 39.5184 2.42102 39.5007 2.39018 39.4852C2.36647 39.4719 2.34275 39.4608 2.31903 39.4475C2.30955 39.4431 2.30718 39.4409 2.30006 39.4386C2.29532 39.4386 2.29057 39.4342 2.28583 39.432C2.27872 39.4231 2.2716 39.4143 2.25737 39.3988C2.22417 39.3655 2.18622 39.3279 2.15064 39.2969C2.14353 39.2902 2.13879 39.288 2.13404 39.2836C2.1293 39.2791 2.11981 39.2725 2.11507 39.2681C2.11507 39.2659 2.11033 39.2592 2.10795 39.257C2.10321 39.2503 2.10084 39.2437 2.09135 39.2326C2.06289 39.1883 2.03443 39.144 2.00597 39.1019C1.99174 39.082 1.97751 39.062 1.96565 39.0399C1.96565 39.0399 1.96091 39.031 1.95617 39.0222C1.95142 39.0111 1.94431 38.9978 1.93482 38.9823C1.92533 38.9624 1.91585 38.9446 1.90636 38.9313C1.90162 38.9247 1.89687 38.9158 1.8945 38.9114C1.87078 38.8538 1.84944 38.794 1.83047 38.7364C1.81149 38.6766 1.79963 38.6168 1.7854 38.557C1.77355 38.506 1.75694 38.4573 1.74746 38.4063C1.74746 38.393 1.73323 38.2734 1.73085 38.2557V38.2512C1.72848 38.1981 1.72611 38.1449 1.72611 38.0917C1.72611 38.012 1.73085 37.9322 1.73797 37.8547C1.74271 37.8104 1.74746 37.7661 1.75457 37.7218C1.75457 37.7218 1.75457 37.7196 1.75457 37.7173C1.75457 37.7129 1.75694 37.7018 1.76169 37.6797C1.77592 37.6132 1.79015 37.5468 1.80675 37.4803C1.82809 37.3917 1.85181 37.3053 1.88027 37.2189C1.90162 37.1502 1.92533 37.0838 1.95142 37.0173C1.95617 37.0062 1.9704 36.973 1.97988 36.9442C1.987 36.9287 1.99174 36.9132 1.99648 36.9043C2.02257 36.8512 2.04866 36.8002 2.07712 36.747C2.11744 36.6739 2.16013 36.603 2.20519 36.5322C2.23603 36.4834 2.26923 36.4369 2.3048 36.3882C2.31192 36.3793 2.31903 36.3682 2.32615 36.3594C2.34987 36.3261 2.37595 36.2929 2.40204 36.2619C2.40679 36.2552 2.42576 36.2375 2.45659 36.2021C2.66767 35.9916 2.77914 35.8831 2.99022 35.7612C3.0092 35.7501 3.02343 35.7391 3.0424 35.728C3.17759 35.6527 3.29143 35.5995 3.4029 35.5663C3.51437 35.533 3.62584 35.522 3.75391 35.5308C3.77051 35.533 3.78711 35.5375 3.79897 35.5419C3.80134 35.5419 3.80608 35.5419 3.80846 35.5441C3.82269 35.5508 3.95076 35.6062 3.95313 35.6017C4.00768 35.6305 4.05985 35.6593 4.11203 35.6903C4.14761 35.7103 4.16658 35.7236 4.17844 35.7324C4.1903 35.7413 4.19267 35.7435 4.18793 35.7413C4.18081 35.7391 4.15709 35.7236 4.14286 35.7125C4.14286 35.7125 4.14049 35.7103 4.13812 35.7103C4.20927 35.7679 4.27331 35.8233 4.3326 35.8786C4.39189 35.934 4.44644 35.9894 4.49625 36.047C4.59823 36.1578 4.68361 36.2685 4.76425 36.3815C4.92315 36.6008 5.07494 36.8246 5.22435 37.0505C5.34057 37.2255 5.45441 37.3983 5.57299 37.5711C5.46627 37.6908 5.36191 37.8104 5.25281 37.9278L5.2623 37.9256Z" fill="white"/>
<path d="M41.8315 28.9932C41.3476 28.6742 41.0061 28.0894 41.0061 27.4514C41.0061 26.388 41.9168 25.5639 43.0552 25.5639C43.6244 25.5639 44.0229 25.75 44.3075 25.9361C45.8159 26.9729 47.4666 27.6109 49.4019 27.6109C51.1949 27.6109 52.2764 26.9463 52.2764 25.8563V25.8032C52.2764 24.7664 51.5933 24.2347 48.2635 23.4372C44.2506 22.4802 41.6607 21.4434 41.6607 17.7483V17.6951C41.6607 14.319 44.5636 12.0859 48.6335 12.0859C51.0526 12.0859 53.1586 12.6708 54.9516 13.7341C55.4355 14 55.9193 14.5582 55.9193 15.3557C55.9193 16.4191 55.0086 17.2432 53.8701 17.2432C53.4432 17.2432 53.1017 17.1369 52.7602 16.9508C51.3087 16.1533 49.9426 15.7013 48.5765 15.7013C46.8974 15.7013 46.0151 16.4191 46.0151 17.3229V17.3761C46.0151 18.599 46.8689 18.9977 50.3126 19.8218C54.354 20.8054 56.6308 22.1612 56.6308 25.4044V25.4576C56.6308 29.1527 53.614 31.2263 49.3165 31.2263C46.6982 31.2263 44.0514 30.4819 41.8315 28.9932Z" fill="white"/>
<path d="M60.5583 26.9198V20.1675H60.416C59.3914 20.1675 58.566 19.3966 58.566 18.4396C58.566 17.4826 59.3914 16.7116 60.416 16.7116H60.5583V14.9305C60.5583 13.814 61.5259 12.9102 62.7212 12.9102C63.9166 12.9102 64.8842 13.814 64.8842 14.9305V16.7116H66.7911C67.8156 16.7116 68.641 17.4826 68.641 18.4396C68.641 19.3966 67.8156 20.1675 66.7911 20.1675H64.8842V26.2552C64.8842 27.1856 65.3111 27.6376 66.2788 27.6376C66.4211 27.6376 66.7057 27.611 66.7911 27.611C67.7587 27.611 68.5841 28.3553 68.5841 29.2858C68.5841 30.0035 68.0718 30.5884 67.4741 30.801C66.6772 31.0935 65.9373 31.1998 64.9981 31.1998C62.3513 31.1998 60.5583 30.2162 60.5583 26.9198Z" fill="white"/>
<path d="M85.5179 29.0993C85.5179 30.2158 84.5503 31.1197 83.355 31.1197C82.1596 31.1197 81.192 30.2158 81.192 29.0993V28.9398C80.1959 30.1361 78.9152 31.226 76.7237 31.226C73.4508 31.226 71.5439 29.2056 71.5439 25.9358V18.5721C71.5439 17.4556 72.5116 16.5518 73.7069 16.5518C74.9023 16.5518 75.8699 17.4556 75.8699 18.5721V24.6598C75.8699 26.5738 76.8376 27.5574 78.4883 27.5574C80.139 27.5574 81.192 26.5738 81.192 24.6598V18.5721C81.192 17.4556 82.1596 16.5518 83.355 16.5518C84.5503 16.5518 85.5179 17.4556 85.5179 18.5721V29.0993Z" fill="white"/>
<path d="M104.729 29.0993C104.729 30.2158 103.761 31.1197 102.566 31.1197C101.37 31.1197 100.403 30.2158 100.403 29.0993V28.9132C99.3497 30.2424 97.8982 31.226 95.6499 31.226C92.0923 31.226 88.7056 28.6208 88.7056 23.8623V23.8092C88.7056 19.0507 92.0354 16.4454 95.6499 16.4454C97.9552 16.4454 99.3782 17.429 100.403 18.5722V13.4149C100.403 12.2984 101.37 11.3945 102.566 11.3945C103.761 11.3945 104.729 12.2984 104.729 13.4149V29.0993ZM93.0315 23.8092V23.8623C93.0315 26.2283 94.7391 27.7967 96.7598 27.7967C98.7805 27.7967 100.46 26.2283 100.46 23.8623V23.8092C100.46 21.4432 98.7805 19.8748 96.7598 19.8748C94.7391 19.8748 93.0315 21.4166 93.0315 23.8092Z" fill="white"/>
<path d="M108.542 13.3088C108.542 12.1391 109.595 11.4214 110.961 11.4214C112.328 11.4214 113.381 12.1391 113.381 13.3088V13.362C113.381 14.5317 112.328 15.276 110.961 15.276C109.595 15.276 108.542 14.5317 108.542 13.362V13.3088ZM108.798 18.5724C108.798 17.4559 109.766 16.5521 110.961 16.5521C112.157 16.5521 113.124 17.4559 113.124 18.5724V29.0996C113.124 30.2161 112.157 31.12 110.961 31.12C109.766 31.12 108.798 30.2161 108.798 29.0996V18.5724Z" fill="white"/>
<path d="M116.454 23.9154V23.8622C116.454 19.7683 119.983 16.4453 124.736 16.4453C129.489 16.4453 132.961 19.7151 132.961 23.809V23.8622C132.961 27.9561 129.432 31.2791 124.679 31.2791C119.927 31.2791 116.454 28.0093 116.454 23.9154ZM128.692 23.9154V23.8622C128.692 21.7621 127.07 19.9278 124.679 19.9278C122.289 19.9278 120.723 21.7089 120.723 23.809V23.8622C120.723 25.9623 122.346 27.7966 124.736 27.7966C127.127 27.7966 128.692 26.0155 128.692 23.9154Z" fill="white"/>
<path d="M136.09 18.5721C136.09 17.4556 137.057 16.5518 138.253 16.5518C139.448 16.5518 140.416 17.4556 140.416 18.5721V19.2101C141.042 17.8278 142.066 16.5518 143.347 16.5518C144.628 16.5518 145.453 17.3759 145.453 18.519C145.453 19.5823 144.713 20.2203 143.831 20.4064C141.639 20.8849 140.416 22.4534 140.416 25.3244V29.0993C140.416 30.2158 139.448 31.1197 138.253 31.1197C137.057 31.1197 136.09 30.2158 136.09 29.0993V18.5721Z" fill="white"/>
<path d="M161.846 29.0993C161.846 30.2158 160.878 31.1197 159.683 31.1197C158.488 31.1197 157.52 30.2158 157.52 29.0993V28.9398C156.524 30.1361 155.243 31.226 153.052 31.226C149.779 31.226 147.872 29.2056 147.872 25.9358V18.5721C147.872 17.4556 148.84 16.5518 150.035 16.5518C151.23 16.5518 152.198 17.4556 152.198 18.5721V24.6598C152.198 26.5738 153.166 27.5574 154.816 27.5574C156.467 27.5574 157.52 26.5738 157.52 24.6598V18.5721C157.52 17.4556 158.488 16.5518 159.683 16.5518C160.878 16.5518 161.846 17.4556 161.846 18.5721V29.0993Z" fill="white"/>
<path d="M165.717 18.572C165.717 17.4555 166.684 16.5516 167.88 16.5516C169.075 16.5516 170.043 17.4555 170.043 18.572V18.7315C171.039 17.5352 172.348 16.4453 174.539 16.4453C176.532 16.4453 178.04 17.2694 178.837 18.7049C180.175 17.2428 181.768 16.4453 183.846 16.4453C187.062 16.4453 188.997 18.253 188.997 21.6823V29.0992C188.997 30.2157 188.03 31.1196 186.834 31.1196C185.639 31.1196 184.671 30.2157 184.671 29.0992V23.0115C184.671 21.0975 183.76 20.1139 182.138 20.1139C180.516 20.1139 179.52 21.0975 179.52 23.0115V29.0992C179.52 30.2157 178.552 31.1196 177.357 31.1196C176.162 31.1196 175.194 30.2157 175.194 29.0992V23.0115C175.194 21.0975 174.283 20.1139 172.661 20.1139C171.039 20.1139 170.043 21.0975 170.043 23.0115V29.0992C170.043 30.2157 169.075 31.1196 167.88 31.1196C166.684 31.1196 165.717 30.2157 165.717 29.0992V18.572Z" fill="white"/>
</svg>
