<?xml version="1.0" standalone="no"?>
<!DOCTYPE svg PUBLIC "-//W3C//DTD SVG 20010904//EN"
 "http://www.w3.org/TR/2001/REC-SVG-20010904/DTD/svg10.dtd">
<svg version="1.0" xmlns="http://www.w3.org/2000/svg"
 width="311.000000pt" height="311.000000pt" viewBox="0 0 311.000000 311.000000"
 preserveAspectRatio="xMidYMid meet">
<metadata>
Created by potrace 1.14, written by Peter Selinger 2001-2017
</metadata>
<g transform="translate(0.000000,311.000000) scale(0.100000,-0.100000)"
fill="#000000" stroke="none">
<path d="M2390 3081 c-133 -47 -186 -194 -116 -318 l24 -42 -60 -95 -61 -95
-42 51 c-290 349 -762 318 -1040 -67 -302 -420 -341 -1259 -84 -1802 22 -46
37 -89 34 -96 -16 -29 -150 -227 -155 -227 -3 0 -20 23 -39 51 -67 98 -136
131 -224 105 -72 -21 -129 -73 -169 -154 -29 -58 -33 -77 -33 -142 1 -64 5
-83 30 -129 78 -143 224 -141 371 4 l62 60 61 -47 c93 -71 180 -85 264 -42
l32 17 -50 12 c-27 6 -71 21 -96 32 -52 23 -129 94 -129 118 0 9 36 68 80 132
44 64 80 112 80 106 0 -20 158 -167 221 -205 95 -58 176 -80 289 -80 68 0 113
6 160 21 295 93 519 419 606 881 47 250 45 623 -6 869 -24 111 -81 283 -121
364 l-29 57 74 118 75 119 58 0 c67 0 115 19 163 66 44 43 60 84 60 154 0 155
-144 256 -290 204z m131 -107 c29 -15 59 -65 59 -100 0 -31 -33 -85 -61 -99
-75 -40 -169 12 -169 93 0 96 87 150 171 106z m-758 -229 c135 -35 268 -137
330 -252 l27 -52 -236 -408 c-535 -921 -623 -1072 -713 -1213 l-41 -65 0 771
c0 736 1 774 20 848 58 230 252 383 485 385 39 1 97 -6 128 -14z m371 -2074
c-67 -232 -260 -381 -492 -381 -121 0 -265 58 -352 141 -53 50 -110 133 -110
158 0 9 22 51 49 93 76 118 221 362 478 807 129 223 281 485 336 581 l102 175
3 -760 c2 -670 0 -766 -14 -814z m-1400 -274 c23 -24 50 -61 61 -81 l19 -38
-71 -68 c-79 -76 -118 -92 -159 -65 -34 22 -47 60 -40 117 9 85 76 178 128
178 12 0 39 -19 62 -43z"/>
</g>
</svg>
